<?xml version="1.0" encoding="utf-8"?>
<!-- Generator: Adobe Illustrator 22.1.0, SVG Export Plug-In . SVG Version: 6.00 Build 0)  -->
<svg version="1.1" id="Calque_1" xmlns="http://www.w3.org/2000/svg" xmlns:xlink="http://www.w3.org/1999/xlink" x="0px" y="0px"
	 viewBox="0 0 16 16" style="enable-background:new 0 0 16 16;" xml:space="preserve">
<style type="text/css">
	.st0{fill:#FFFFFF;}
</style>
<path class="st0" d="M11.5,7h3.9c0.1,0,0.2,0.1,0.2,0.3c0,0.1,0,0.1-0.1,0.2l-2,2.4c-0.1,0.1-0.2,0.1-0.4,0c0,0,0,0,0,0l-2-2.4
	c-0.1-0.1-0.1-0.3,0-0.4C11.4,7,11.5,7,11.5,7z M0.5,9h3.9c0.1,0,0.2-0.1,0.2-0.3c0-0.1,0-0.1-0.1-0.2l-2-2.4
	c-0.1-0.1-0.2-0.1-0.4,0c0,0,0,0,0,0l-2,2.4c-0.1,0.1-0.1,0.3,0,0.4C0.4,9,0.5,9,0.5,9z"/>
<path class="st0" d="M8,3C6.4,3,5.1,3.7,4.1,4.8C4,5,3.7,5.1,3.4,4.9C3.2,4.7,3.2,4.4,3.4,4.2c0,0,0,0,0,0c2.1-2.6,5.9-2.9,8.4-0.8
	c1.1,0.9,1.9,2.2,2.1,3.6h-1C12.4,4.7,10.4,3,8,3z M3.1,9c0.6,2.7,3.2,4.5,5.9,3.9c1.1-0.2,2.1-0.8,2.9-1.7c0.2-0.2,0.5-0.3,0.7-0.1
	c0.2,0.2,0.3,0.5,0.1,0.7c0,0,0,0,0,0c-2.1,2.6-5.9,2.9-8.4,0.8C3.1,11.7,2.3,10.4,2.1,9H3.1z"/>
</svg>
