<svg xmlns="http://www.w3.org/2000/svg" width="16" height="16"
     viewBox="337.029 155.764 174.808 222.995"><path
        d="M337.121 285.735l16.777.164-.584 74.714h111.664v-74.442h17.684v92.588H337.029l.092-93.024z" fill="#919191"/>
    <path fill="#FFFFFF" d="M364.479 329.903h87.472v18.613h-87.472z"/>
    <path fill="#FFFFFF" d="M366.525 296.413l87.537 8.451-1.833 18.988-87.537-8.45z"/>
    <path fill="#FFFFFF" d="M374.518 258.553l84.63 23.883-5.18 18.358-84.63-23.883z"/>
    <path fill="#FFFFFF" d="M395.042 215.732l75.274 45.463-9.862 16.328-75.274-45.463z"/>
    <path fill="#FFFFFF" d="M437.856 175.184l51.225 71.487-15.51 11.114-51.225-71.488z"/>
    <path fill="#FFFFFF" d="M497.35 155.751l14.492 86.728-18.814 3.144-14.491-86.728z"/></svg>
